<?xml version="1.0" standalone="no"?>
<!DOCTYPE svg PUBLIC "-//W3C//DTD SVG 20010904//EN"
 "http://www.w3.org/TR/2001/REC-SVG-20010904/DTD/svg10.dtd">
<svg version="1.0" xmlns="http://www.w3.org/2000/svg"
 width="512.000000pt" height="512.000000pt" viewBox="0 0 512.000000 512.000000"
 preserveAspectRatio="xMidYMid meet">

<g transform="translate(0.000000,512.000000) scale(0.100000,-0.100000)"
fill="#ffffff" stroke="none">
<path d="M1115 4949 c-497 -72 -887 -478 -945 -985 -8 -69 -10 -363 -8 -964 4
-856 4 -866 26 -949 89 -334 286 -581 587 -731 115 -58 278 -110 344 -110 14
0 36 -3 49 -6 l22 -6 0 -485 c0 -510 2 -530 45 -547 55 -21 52 -24 585 509
l515 515 762 0 c455 0 802 4 862 10 410 42 772 315 920 694 79 202 76 158 76
1181 0 975 1 957 -52 1120 -54 168 -149 319 -280 446 -131 127 -263 209 -426
264 -167 56 -142 55 -1642 54 -759 -1 -1407 -5 -1440 -10z m711 -1644 c108
-32 168 -115 169 -231 0 -61 -4 -77 -30 -120 -19 -30 -49 -60 -79 -79 -44 -27
-58 -30 -126 -30 -68 0 -82 3 -126 30 -30 19 -60 49 -79 79 -26 43 -30 59 -30
120 1 84 24 137 82 185 37 31 107 59 149 60 11 1 43 -6 70 -14z m800 0 c108
-32 168 -115 169 -231 0 -61 -4 -77 -30 -120 -19 -30 -49 -60 -79 -79 -44 -27
-58 -30 -126 -30 -68 0 -82 3 -126 30 -30 19 -60 49 -79 79 -26 43 -30 59 -30
120 1 84 24 137 82 185 37 31 107 59 149 60 11 1 43 -6 70 -14z m800 0 c27 -8
68 -30 91 -49 120 -104 105 -296 -31 -381 -44 -27 -58 -30 -126 -30 -68 0 -82
3 -126 30 -30 19 -60 49 -79 79 -26 43 -30 59 -30 120 1 84 24 137 82 185 37
31 107 59 149 60 11 1 43 -6 70 -14z"/>
</g>
</svg>
