<?xml version="1.0" standalone="no"?>
<!DOCTYPE svg PUBLIC "-//W3C//DTD SVG 20010904//EN"
 "http://www.w3.org/TR/2001/REC-SVG-20010904/DTD/svg10.dtd">
<svg version="1.0" xmlns="http://www.w3.org/2000/svg"
 width="512.000000pt" height="512.000000pt" viewBox="0 0 512.000000 512.000000"
 preserveAspectRatio="xMidYMid meet">

<g transform="translate(0.000000,512.000000) scale(0.100000,-0.100000)"
fill="#ffffff" stroke="none">
<path d="M2487 4900 c-207 -36 -357 -225 -357 -451 0 -34 -2 -36 -57 -53 -91
-28 -270 -120 -368 -191 -181 -129 -345 -316 -443 -504 -113 -216 -124 -264
-263 -1101 -66 -399 -124 -739 -129 -756 -24 -71 -69 -123 -187 -212 -146
-111 -184 -151 -220 -227 -25 -53 -28 -71 -28 -160 0 -91 3 -106 31 -165 54
-114 160 -197 283 -220 32 -6 261 -10 562 -10 l509 0 6 -27 c25 -117 64 -207
129 -298 121 -171 301 -276 521 -306 148 -19 332 20 470 102 78 46 210 179
256 259 34 58 76 169 92 243 l6 27 509 0 c301 0 530 4 562 10 124 23 229 105
283 220 28 59 31 74 31 165 0 89 -3 107 -28 160 -36 76 -74 116 -220 227 -118
89 -163 141 -187 212 -5 17 -64 357 -129 756 -138 837 -150 886 -262 1100
-161 308 -488 591 -797 691 -71 23 -72 23 -72 58 0 109 -41 229 -105 307 -88
108 -257 169 -398 144z m187 -240 c50 -34 87 -91 93 -142 l5 -43 -212 0 -212
0 5 44 c6 57 50 118 107 149 61 32 159 29 214 -8z m126 -416 c257 -53 473
-168 651 -346 143 -142 255 -329 313 -520 15 -48 78 -402 151 -838 119 -724
126 -758 159 -826 48 -95 95 -146 237 -254 123 -94 154 -129 165 -188 14 -72
-28 -152 -97 -188 -42 -21 -3596 -21 -3638 0 -42 22 -89 81 -97 121 -16 90 15
141 148 241 57 42 120 93 142 113 54 50 111 141 135 214 11 34 73 379 136 767
64 388 122 732 130 765 66 288 264 575 513 743 168 114 372 189 571 212 98 11
286 3 381 -16z m276 -3421 c-16 -69 -80 -178 -140 -237 -210 -210 -542 -210
-752 0 -60 59 -124 168 -140 237 l-6 27 522 0 522 0 -6 -27z"/>
</g>
</svg>
