<?xml version="1.0" standalone="no"?>
<!DOCTYPE svg PUBLIC "-//W3C//DTD SVG 20010904//EN"
 "http://www.w3.org/TR/2001/REC-SVG-20010904/DTD/svg10.dtd">
<svg version="1.0" xmlns="http://www.w3.org/2000/svg"
 width="512.000000pt" height="512.000000pt" viewBox="0 0 512.000000 512.000000"
 preserveAspectRatio="xMidYMid meet">

<g transform="translate(0.000000,512.000000) scale(0.100000,-0.100000)"
fill="#ffffff" stroke="none">
<path d="M2487 4900 c-207 -36 -357 -225 -357 -451 0 -34 -2 -36 -57 -53 -89
-28 -231 -99 -329 -165 -252 -169 -447 -410 -555 -683 -49 -124 -77 -264 -190
-948 -65 -399 -124 -739 -129 -756 -24 -71 -69 -123 -187 -212 -146 -111 -184
-151 -220 -227 -25 -53 -28 -71 -28 -160 0 -91 3 -106 31 -165 54 -114 160
-197 283 -220 74 -14 3548 -14 3622 0 124 23 229 105 283 220 28 59 31 74 31
165 0 166 -42 232 -248 387 -118 89 -163 141 -187 212 -5 17 -64 357 -129 756
-138 837 -150 886 -262 1100 -161 308 -488 591 -797 691 -71 23 -72 23 -72 58
0 109 -41 229 -105 307 -88 108 -257 169 -398 144z m187 -240 c50 -34 87 -91
93 -142 l5 -43 -212 0 -212 0 5 44 c6 57 50 118 107 149 61 32 159 29 214 -8z"/>
<path d="M1890 634 c0 -22 86 -140 145 -200 337 -337 894 -278 1152 124 18 28
36 59 39 67 5 13 -73 15 -665 15 -369 0 -671 -3 -671 -6z"/>
</g>
</svg>
